<svg class="icon" style="width: 1em;height: 1em;vertical-align: middle;fill: currentColor;overflow: hidden;" viewBox="0 0 1024 1024" version="1.1" xmlns="http://www.w3.org/2000/svg" p-id="784"><path d="M960.2 839.8L547 124.1c-7.1-12.4-20.4-20-34.6-20s-27.5 7.6-34.6 20L64.5 839.8c-7.1 12.4-7.1 27.6 0 40 7.1 12.4 20.4 20 34.6 20h826.4c14.3 0 27.5-7.6 34.6-20 7.2-12.4 7.2-27.6 0.1-40z m-791.8-20l343.9-595.7 343.9 595.7H168.4zM473 388.6v235.5c0 22.1 17.9 40 40 40s40-17.9 40-40V388.6c0-22.1-17.9-40-40-40s-40 17.9-40 40zM465.030989 731.655343a47.2 47.2 0 1 0 93.182237-15.113927 47.2 47.2 0 1 0-93.182237 15.113927Z" p-id="785"></path></svg>