<svg class="icon" style="width: 1em;height: 1em;vertical-align: middle;fill: currentColor;overflow: hidden;" viewBox="0 0 1024 1024" version="1.1" xmlns="http://www.w3.org/2000/svg" p-id="795"><path d="M886.9 101.3H135.5c-22.1 0-40 17.9-40 40v751.5c0 22.1 17.9 40 40 40H887c22.1 0 40-17.9 40-40V141.3c-0.1-22.1-18-40-40.1-40z m-40 751.5H175.5V181.3H847v671.5zM285.3 804h451.8c22.1 0 40-17.9 40-40 0-71-27.7-137.8-77.9-188-19.5-19.5-41.5-35.6-65.2-48 31.8-31.6 51.5-75.3 51.5-123.6 0-96.1-78.2-174.3-174.3-174.3s-174.3 78.2-174.3 174.3c0 48.3 19.7 92 51.5 123.6-23.8 12.4-45.8 28.5-65.2 48-50.2 50.2-77.9 117-77.9 188 0 22.1 17.9 40 40 40z m131.6-399.6c0-52 42.3-94.3 94.3-94.3s94.3 42.3 94.3 94.3c0 49-37.5 89.3-85.3 93.9-3-0.1-6-0.2-9-0.2s-6 0.1-9 0.2c-47.8-4.6-85.3-45-85.3-93.9z m84 174c3.4 0.2 6.8 0.3 10.3 0.3s6.9-0.1 10.3-0.3c84.2 4.6 153.6 65.5 171.3 145.6H329.7c17.6-80.1 87-141 171.2-145.6z" p-id="796"></path></svg>