<svg class="icon" style="width: 1em;height: 1em;vertical-align: middle;fill: currentColor;overflow: hidden;" viewBox="0 0 1024 1024" version="1.1" xmlns="http://www.w3.org/2000/svg" p-id="608"><path d="M951.2 282.2c-14.3-6.5-31.1-4-42.9 6.4l-165 145.3V164.5c0-22.1-17.9-40-40-40H108c-22.1 0-40 17.9-40 40v695.2c0 22.1 17.9 40 40 40h595.3c22.1 0 40-17.9 40-40V590.4l164.9 145.2c7.5 6.6 16.9 10 26.4 10 5.6 0 11.2-1.2 16.5-3.5 14.3-6.5 23.5-20.7 23.5-36.5V318.7c0.1-15.7-9.1-30-23.4-36.5zM663.3 819.7H148V204.5h515.3v615.2zM894.7 617L775.5 512.1l119.2-104.9V617zM317.7 481.3c58.1 0 105.4-47.3 105.4-105.4s-47.3-105.4-105.4-105.4-105.4 47.3-105.4 105.4 47.3 105.4 105.4 105.4z m0-130.8c14 0 25.4 11.4 25.4 25.4s-11.4 25.4-25.4 25.4-25.4-11.4-25.4-25.4 11.4-25.4 25.4-25.4z" p-id="609"></path></svg>