<?xml version="1.0" standalone="no"?><!DOCTYPE svg PUBLIC "-//W3C//DTD SVG 1.1//EN" "http://www.w3.org/Graphics/SVG/1.1/DTD/svg11.dtd"><svg class="icon" width="200px" height="200.00px" viewBox="0 0 1024 1024" version="1.1" xmlns="http://www.w3.org/2000/svg"><path d="M541.63889 910.043H83.46589c0.264-16.238 0.671-33.615 1.057-49.875 0.407-16.4 0.752-31.563 0.895-43.279 6.829-11.4 23.128-18.139 52.923-28.463 10.466-3.627 21.299-7.377 32.172-11.971 18.556-7.824 37.904-16.146 57.435-24.541 29.124-12.518 59.224-25.455 87.128-36.928l38.046-10.395a41.346 41.346 0 0 0 12.62-5.863c15.456-10.629 27.447-28.555 38.32-49.266 0.955-1.809 1.87-3.719 2.805-5.559 0.519-1.016 1.026-2.031 1.534-3.047a712.124 712.124 0 0 0 9.166-19.064l1.87-4.023c2.602-5.58 3.841-11.535 3.852-17.449 0-0.121 0.021-0.242 0.021-0.355-0.011-1.574-0.184-3.129-0.366-4.684-0.051-0.447-0.041-0.895-0.112-1.342-0.183-1.219-0.528-2.418-0.822-3.617-0.184-0.752-0.295-1.525-0.519-2.266-0.406-1.332-0.966-2.623-1.515-3.912-0.233-0.57-0.406-1.17-0.67-1.738a41.883 41.883 0 0 0-6.859-10.232c-43.584-47.813-71.804-113.275-78.175-179.479a297.958 297.958 0 0 1-1.372-28.361c0-22.275 0.895-42.7 2.592-61.428 11.838-131.118 62.556-179.123 116.088-195.625 20.395-6.291 41.206-8.008 60.433-8.008 26.421 0 55.85 3.252 83.083 17.163 51.987 26.553 96.009 91.985 96.009 247.897 0 51.795-13.993 104.615-38.859 150.323-11.391 20.924-25.049 40.363-40.688 57.518a41.271 41.271 0 0 0-6.849 10.223c-2.562 5.395-3.893 11.27-3.983 17.193 0 0.111-0.021 0.223-0.031 0.346-0.01 1.26 0.143 2.52 0.255 3.779 0.061 0.762 0.04 1.525 0.152 2.277 0.091 0.619 0.284 1.238 0.396 1.859 0.265 1.381 0.498 2.773 0.905 4.145 0.01 0.063 0.04 0.113 0.061 0.174a41.625 41.625 0 0 0 2.113 5.6l1.86 4.023c4.318 9.352 8.67 18.518 13.213 27.203 19.939-55.17 63.495-99.127 118.393-119.631 23.543-51.37 36.318-108.024 36.318-165.032 0-143.942-35.668-231.008-86.294-282.102-50.627-51.094-116.211-66.205-176.054-66.205H512.00189c-108.467 0-235.805 49.631-258.719 273.201-2.378 23.127-3.628 48.115-3.628 75.105 0 5.467 0.122 10.934 0.345 16.391 0.509 11.859 1.606 23.678 3.182 35.435 2.052 15.272 4.948 30.425 8.749 45.331 2.53 9.959 5.487 19.796 8.77 29.521 0.193 0.579 0.355 1.159 0.559 1.737 0.549 1.586 1.169 3.15 1.728 4.736 14.064 39.336 34.144 76.366 59.6 109.026-0.376 0.742-0.763 1.473-1.139 2.215-0.69 1.332-1.372 2.672-2.073 3.984a225.59 225.59 0 0 1-0.935 1.707 214.329 214.329 0 0 1-2.51 4.49c-0.539 0.936-1.077 1.861-1.605 2.725-0.163 0.283-0.336 0.568-0.509 0.854a86.615 86.615 0 0 1-2.632 4.014l0.031 0.01c-0.143 0.193-0.295 0.447-0.427 0.631l-30.059 8.199a42.726 42.726 0 0 0-4.878 1.656c-29.205 11.971-60.503 25.436-90.786 38.443-19.348 8.313-38.513 16.553-56.927 24.326-8.353 3.527-17.438 6.678-27.051 10.01C71.94189 723.33 23.24689 740.209 4.50889 794.504a41.687 41.687 0 0 0-2.276 13.576c0 11.838-0.447 30.008-0.935 50.098C0.52589 890.502-0.34811 927.125 0.15989 952.489 0.60689 975.151 19.10189 993.29 41.76289 993.29H552.05489c-6.677-14.318-10.415-30.27-10.415-47.082v-36.165z" fill="#00695E" /><path d="M962.23089 752.088h-4.414v-35.295c0-82.711-67.287-150-150-150-82.711 0-150.002 67.289-150.002 150 0 0.238 0.061 0.457 0.07 0.689h-0.07v34.605h-4.41c-34.059 0-61.766 27.707-61.766 61.766v132.354c0 34.059 27.707 61.766 61.766 61.766h308.826c34.057 0 61.766-27.707 61.766-61.766V813.854c-0.001-34.059-27.71-61.766-61.766-61.766zM739.70689 973.537l45.73-87.777h0.119c-17.412-8.32-29.441-26.092-29.441-46.676 0-28.555 23.148-51.701 51.701-51.701 28.555 0 51.701 23.146 51.701 51.701 0 20.584-12.029 38.355-29.439 46.676h0.117l45.73 87.777H739.70689z m157.852-221.449H718.12989v-27.064h-0.056c0.008-0.182 0.056-0.354 0.056-0.539 0-49.471 40.247-89.715 89.715-89.715 49.47 0 89.714 40.244 89.714 89.715v27.603z" fill="#00695E" /></svg>