<?xml version="1.0" standalone="no"?><!DOCTYPE svg PUBLIC "-//W3C//DTD SVG 1.1//EN" "http://www.w3.org/Graphics/SVG/1.1/DTD/svg11.dtd"><svg class="icon" width="200px" height="200.00px" viewBox="0 0 1024 1024" version="1.1" xmlns="http://www.w3.org/2000/svg"><path d="M901.569 60.618h-116.441c-21.437 0-38.814 17.378-38.814 38.814s17.378 38.814 38.814 38.814h77.629c21.437 0 38.812 17.378 38.812 38.814v77.629c0 21.437 17.378 38.814 38.816 38.814 21.437 0 38.812-17.378 38.812-38.814v-116.443c0-42.871-34.754-77.629-77.629-77.629z" fill="#00695E" /><path d="M862.757 526.387c-21.439 0-38.816 17.378-38.816 38.814v310.513c0 21.437-17.375 38.813-38.81 38.814h-77.631c-21.439 0-38.816-17.378-38.816-38.814v-194.067c0-0.001 0.002-0.002 0.002-0.002 0-42.874-34.755-77.63-77.631-77.63h-155.254c-42.874 0-77.629 34.755-77.629 77.629v194.071c0 21.437-17.378 38.814-38.814 38.814h-77.629c-21.438 0-38.814-17.378-38.814-38.814v-310.513c0-21.437-17.378-38.814-38.814-38.814-21.438 0-38.814 17.378-38.814 38.814v349.327c0 42.873 34.754 77.629 77.629 77.629h155.258c42.873 0 77.629-34.755 77.629-77.629v-194.071c0-21.435 17.375-38.812 38.811-38.814h77.635c21.434 0.002 38.812 17.378 38.812 38.814l-0.002 194.071c0 42.873 34.755 77.629 77.629 77.629h155.258c42.874 0 77.629-34.755 77.629-77.629v-349.327c0-21.437-17.375-38.814-38.812-38.814z" fill="#00695E" /><path d="M967.905 460.203l-399.263-399.257c-0.092-0.093-0.177-0.19-0.27-0.285-30.305-30.304-79.428-30.314-109.748-0.035h-0.098l-398.827 398.861c-7.412 7.068-12.038 17.035-12.038 28.086 0 21.438 17.377 38.814 38.814 38.814 11.078 0 21.065-4.647 28.138-12.093l0.017 0.017 371.407-371.312c15.111-15.111 39.582-15.154 54.753-0.132l372.188 372.188c7.022 7.004 16.708 11.333 27.41 11.333 21.437 0 38.812-17.377 38.812-38.814 0-10.682-4.316-20.351-11.294-27.37l0.002-0.002z" fill="#00695E" /></svg>