<svg class="icon" style="width: 1em;height: 1em;vertical-align: middle;fill: currentColor;overflow: hidden;"
    viewBox="0 0 1024 1024" version="1.1" xmlns="http://www.w3.org/2000/svg" p-id="9788">
    <path
        d="M786.944 486.4h-1.024v-1.024h-269.312V380.416h81.408c37.888 0 68.608-30.72 68.608-68.608V130.048c0-37.888-30.72-68.608-68.608-68.608h-215.04c-37.888 0-68.608 30.72-68.608 68.608v181.248c0 37.888 30.72 68.608 68.608 68.608h86.528v104.96h-281.6v140.288H122.368c-37.888 0-68.608 30.72-68.608 68.608v181.248c0 37.888 30.72 68.608 68.608 68.608h215.04c37.888 0 68.608-30.72 68.608-68.608v-181.248c0-37.888-30.72-68.608-68.608-68.608H236.032v-89.088h550.912V486.4z m-449.536 189.952c10.24 0 17.92 8.192 17.92 17.92V875.52c0 10.24-8.192 17.92-17.92 17.92h-215.04c-10.24 0-17.92-8.192-17.92-17.92v-181.248c0-10.24 8.192-17.92 17.92-17.92h215.04z m45.568-346.624c-10.24 0-17.92-8.192-17.92-17.92V130.048c0-9.728 8.192-17.92 17.92-17.92h215.04c9.728 0 17.92 8.192 17.92 17.92v181.248c0 9.728-8.192 17.92-17.92 17.92h-215.04zM960.512 753.664h-122.368v-122.368c0-12.8-10.24-23.04-23.04-23.04s-23.04 10.24-23.04 23.04v122.368h-122.368c-12.8 0-23.04 10.24-23.04 23.04s10.24 23.04 23.04 23.04h122.368V921.6c0 12.8 10.24 23.04 23.04 23.04s23.04-10.24 23.04-23.04v-122.368h122.368c12.8 0 23.04-10.24 23.04-23.04 0-12.288-10.752-22.528-23.04-22.528z"
        fill="currentColor" p-id="9789"></path>
</svg>