<svg class="icon" style="width: 1em;height: 1em;vertical-align: middle;fill: currentColor;overflow: hidden;"
    viewBox="0 0 1024 1024" version="1.1" xmlns="http://www.w3.org/2000/svg" p-id="14599">
    <path
        d="M667.43394 696.89724a9.019378 9.019378 0 0 0-7.816794-3.607751h-51.711098a9.019378 9.019378 0 0 0-7.816794 14.431004l87.187317 120.258368a9.620669 9.620669 0 0 0 15.032296 0l134.08808-185.799178a9.620669 9.620669 0 0 0-7.816794-15.032296h-51.711098a10.221961 10.221961 0 0 0-7.816794 4.209043l-76.965356 102.820904z m51.109806-425.113329v-60.129184a9.620669 9.620669 0 0 0-9.620669-9.620669h-450.968879a9.620669 9.620669 0 0 0-9.620669 9.620669v60.129184a9.620669 9.620669 0 0 0 9.620669 9.019377h450.968879a9.620669 9.620669 0 0 0 9.620669-9.019377z m-460.589548 102.219612a9.620669 9.620669 0 0 0-9.620669 9.019378v56.521433a9.620669 9.620669 0 0 0 9.620669 12.627128h216.465062a9.620669 9.620669 0 0 0 9.019378-9.620669v-59.527892a9.019378 9.019378 0 0 0-9.019378-9.019378z m216.465062 537.554903H154.532002V84.782149h657.813271v347.546682a9.620669 9.620669 0 0 0 9.620669 9.62067h65.540811a9.620669 9.620669 0 0 0 9.620669-9.62067V37.881386a37.881386 37.881386 0 0 0-37.881386-37.881386H107.631239A37.881386 37.881386 0 0 0 70.351145 37.881386v920.577804a37.881386 37.881386 0 0 0 37.280094 37.881385h366.788021a9.620669 9.620669 0 0 0 9.019378-9.620669v-65.54081a9.620669 9.620669 0 0 0-9.019378-9.62067z m472.615385-376.40869l-225.484439-78.769231h-6.012919L490.052848 535.149736a9.019378 9.019378 0 0 0-6.61421 8.418085v295.234293a9.620669 9.620669 0 0 0 3.607751 7.215502L712.530828 1022.196124a10.823253 10.823253 0 0 0 6.012918 0 9.019378 9.019378 0 0 0 5.411627 0l225.484439-176.178508a9.620669 9.620669 0 0 0 3.607751-7.215502V543.567821a9.019378 9.019378 0 0 0-6.012918-8.418085z m-66.743394 272.986494l-161.747505 125.068702-162.348796-126.271285V588.664709l162.348796-56.521432 161.747505 56.521432z"
        p-id="14600"></path>
</svg>