<svg class="icon" style="width: 1em;height: 1em;vertical-align: middle;fill: currentColor;overflow: hidden;"
    viewBox="0 0 1024 1024" version="1.1" xmlns="http://www.w3.org/2000/svg" p-id="8339">
    <path
        d="M391.3 554.7c-66.7 0-129.4-26.9-176.6-75.9-46.9-48.7-72.7-113.5-72.7-182.3s25.8-133.5 72.8-182.3c47.1-48.9 109.8-75.9 176.6-75.9 66.7 0 129.4 26.9 176.6 75.9 46.9 48.7 72.8 113.5 72.8 182.3S615 430 568 478.8c-47.3 48.9-110 75.9-176.7 75.9z m0-476.3C275.9 78.4 182 176.2 182 296.5s93.9 218.2 209.3 218.2 209.3-97.9 209.3-218.2S506.7 78.4 391.3 78.4zM725 971.6H57.6c-22.2 0-40.2-18-40.2-40.2V801.2c0-64.8 25.2-125.8 71.1-171.6 45.8-45.8 106.8-71.1 171.6-71.1h262.4c13 0 26.1 1 38.8 3.1 10.9 1.8 18.3 12 16.6 22.9-1.8 10.9-12 18.3-22.9 16.6-10.7-1.7-21.6-2.6-32.5-2.6H260.1c-111.8 0-202.7 90.9-202.7 202.7v130.1c0 0.1 0.1 0.2 0.2 0.2H725c0.1 0 0.1 0 0.2-0.1 6.7-8.8 19.3-10.5 28-3.7 8.8 6.7 10.5 19.3 3.7 28-7.6 10.1-19.3 15.9-31.9 15.9z"
        fill="currentColor" p-id="8340"></path>
    <path
        d="M797.1 914.8c-23.2 0-46.2-3.6-68.4-10.7-51.9-16.7-96.8-51.1-126.6-96.8-15.7-24.1-29.8-59.2-36.9-91.6-6.5-29.6-10.4-71.5 7.6-103.3 2.5-4.5 5.4-8.8 8.6-12.8 16.5-21 42-33.6 68.1-33.6 19.5 0 37.7 6.8 52.5 19.7l39.2 34c15 13 23.1 15.7 27.4 15.7 1.1 0 2-0.2 2.9-0.6 5.8-2.6 10.5-14.5 10.4-25.8-0.1-7.2-2.2-15.1-4.4-23.4-0.6-2.2-1.2-4.4-1.7-6.6-3.3-13.1-6.1-28.7-1.8-44.8 7.6-28.8 33.1-45.9 68.4-45.9 24.6 0 51.2 8.5 67.8 21.6 54.4 43 92.6 111.5 102.1 183.3 8.9 67.4-20 133.7-75.5 172.9l-11 7.8c-37.9 26.8-82.4 40.9-128.7 40.9zM649.6 606.1c-14 0-27.7 6.8-36.7 18.3-1.9 2.4-3.6 5-5.2 7.7-9.2 16.2-10.4 42.9-3.3 75.1 7.3 33.5 21 62.4 31.3 78.3 24.7 38 62.1 66.6 105.3 80.5 18.2 5.9 37 8.8 56.1 8.8 38 0 74.5-11.6 105.6-33.5l11-7.8c43.4-30.6 66-82.4 59-135-8.2-61.7-40.8-120.5-87.3-157.2-8.2-6.4-25.5-13-43-13-16.9 0-26.9 5.4-29.7 16.1-1.9 7.3-0.1 16.7 2 24.9 0.5 2 1 4.1 1.6 6.1 2.6 9.8 5.5 21 5.7 33 0.4 23.5-9.9 52-33.8 62.9-6.1 2.8-12.7 4.2-19.5 4.2-21.7 0-41-14.6-53.6-25.5l-39.2-34c-7.4-6.5-16.5-9.9-26.3-9.9z"
        fill="currentColor" p-id="8341"></path>
    <path d="M696.4 723.4m-35.1 0a35.1 35.1 0 1 0 70.2 0 35.1 35.1 0 1 0-70.2 0Z" fill="currentColor" p-id="8342">
    </path>
    <path d="M815 787.6m-44.7 0a44.7 44.7 0 1 0 89.4 0 44.7 44.7 0 1 0-89.4 0Z" fill="currentColor" p-id="8343"></path>
    <path d="M894.8 646.7m-41.5 0a41.5 41.5 0 1 0 83 0 41.5 41.5 0 1 0-83 0Z" fill="currentColor" p-id="8344"></path>
</svg>