<svg class="icon" style="width: 1em;height: 1em;vertical-align: middle;fill: currentColor;overflow: hidden;" viewBox="0 0 1024 1024" version="1.1" xmlns="http://www.w3.org/2000/svg" p-id="861"><path d="M901.12 92.16H122.88c-39.322 0-71.68 32.358-71.68 71.68v696.32c0 39.322 32.358 71.68 71.68 71.68h778.24c39.322 0 71.68-32.358 71.68-71.68V163.84c0-39.322-32.358-71.68-71.68-71.68z m10.24 768c0 5.734-4.506 10.24-10.24 10.24H122.88c-5.734 0-10.24-4.506-10.24-10.24V163.84c0-5.734 4.506-10.24 10.24-10.24h778.24c5.734 0 10.24 4.506 10.24 10.24v696.32zM710.656 447.283V251.904c0-16.794-13.926-30.72-30.72-30.72s-30.72 13.926-30.72 30.72v195.38c-38.093 12.697-65.536 48.742-65.536 91.34v57.344c0 42.189 27.443 78.234 65.536 91.34v84.788c0 16.794 13.926 30.72 30.72 30.72s30.72-13.926 30.72-30.72v-84.787c38.093-12.698 65.536-48.743 65.536-91.341v-57.344c0-42.189-27.443-78.234-65.536-91.34z m4.096 148.685c0 19.251-15.565 34.816-34.816 34.816s-34.816-15.565-34.816-34.816v-57.344c0-19.251 15.565-34.816 34.816-34.816s34.816 15.565 34.816 34.816v57.344zM374.784 336.691v-84.787c0-16.794-13.926-30.72-30.72-30.72s-30.72 13.926-30.72 30.72v84.787c-38.093 12.698-65.536 48.743-65.536 91.341v57.344c0 42.189 27.443 78.234 65.536 91.34v195.38c0 16.794 13.926 30.72 30.72 30.72s30.72-13.926 30.72-30.72v-195.38c38.093-12.697 65.536-48.742 65.536-91.34v-57.344c0-42.189-27.443-78.234-65.536-91.34z m4.096 148.685c0 19.251-15.565 34.816-34.816 34.816s-34.816-15.565-34.816-34.816v-57.344c0-19.251 15.565-34.816 34.816-34.816s34.816 15.565 34.816 34.816v57.344z" fill="currentColor" p-id="862"></path></svg>