<svg class="icon" style="width: 1em;height: 1em;vertical-align: middle;fill: currentColor;overflow: hidden;"
    viewBox="0 0 1024 1024" version="1.1" xmlns="http://www.w3.org/2000/svg" p-id="7240">
    <path
        d="M512 32c265.088 0 480 214.912 480 480 0 265.088-214.912 480-480 480-265.088 0-480-214.912-480-480C32 246.912 246.912 32 512 32z m176.32 178.08a23.456 23.456 0 0 0-23.456 40.64 303.136 303.136 0 0 1 152.192 262.784c0 167.616-136.544 303.552-305.056 303.552-168.512 0-305.056-135.936-305.056-303.552a303.136 303.136 0 0 1 152.096-262.72 23.456 23.456 0 0 0-23.488-40.64A350.048 350.048 0 0 0 160 513.504C160 707.104 317.632 864 512 864s352-156.896 352-350.496c0-126.464-67.84-241.152-175.68-303.424zM512 160a23.456 23.456 0 0 0-23.456 23.456v281.6a23.456 23.456 0 1 0 46.912 0v-281.6A23.456 23.456 0 0 0 512 160z"
        fill="currentColor" p-id="7241"></path>
</svg>