<?xml version="1.0" standalone="no"?><!DOCTYPE svg PUBLIC "-//W3C//DTD SVG 1.1//EN" "http://www.w3.org/Graphics/SVG/1.1/DTD/svg11.dtd"><svg class="icon" width="200px" height="200.00px" viewBox="0 0 1024 1024" version="1.1" xmlns="http://www.w3.org/2000/svg"><path d="M572.928 900.608H174.08c-16.896 0-30.72-13.824-30.72-30.72V154.112c0-16.896 13.824-30.72 30.72-30.72h522.24c16.896 0 30.72 13.824 30.72 30.72s13.824 30.72 30.72 30.72 30.72-13.824 30.72-30.72c0-50.688-41.472-92.16-92.16-92.16H174.08c-50.688 0-92.16 41.472-92.16 92.16v715.776c0 50.688 41.472 92.16 92.16 92.16h398.848c16.896 0 30.72-13.824 30.72-30.72s-13.824-30.72-30.72-30.72z" fill="#00695E" /><path d="M572.928 969.728H174.08c-55.296 0-99.84-45.056-99.84-99.84V154.112c0-55.296 45.056-99.84 99.84-99.84h522.24c55.296 0 99.84 45.056 99.84 99.84 0 20.992-17.408 38.4-38.4 38.4s-38.4-17.408-38.4-38.4c0-12.8-10.24-23.04-23.04-23.04H174.08c-12.8 0-23.04 10.24-23.04 23.04v715.776c0 12.8 10.24 23.04 23.04 23.04h398.848c20.992 0 38.4 17.408 38.4 38.4s-17.408 38.4-38.4 38.4zM174.08 69.632c-46.592 0-84.48 37.888-84.48 84.48v715.776c0 46.592 37.888 84.48 84.48 84.48h398.848c12.8 0 23.04-10.24 23.04-23.04s-10.24-23.04-23.04-23.04H174.08c-20.992 0-38.4-17.408-38.4-38.4V154.112c0-20.992 17.408-38.4 38.4-38.4h522.24c20.992 0 38.4 17.408 38.4 38.4 0 12.8 10.24 23.04 23.04 23.04s23.04-10.24 23.04-23.04c0-46.592-37.888-84.48-84.48-84.48H174.08z" fill="#00695E" /><path d="M528.896 289.792c0-17.92-14.336-32.256-32.256-32.256H240.128c-17.92 0-32.256 14.336-32.256 32.256s14.336 32.256 32.256 32.256h257.024c17.408 0 31.744-14.336 31.744-32.256z m-31.744 192.512c0-17.92-14.336-32.256-32.256-32.256H240.128c-17.92 0-32.256 14.336-32.256 32.256s14.336 32.256 32.256 32.256h224.768c17.92 0 32.256-14.336 32.256-32.256zM240.128 675.328c-17.92 0-32.256 14.336-32.256 32.256s14.336 32.256 32.256 32.256H368.64c17.92 0 32.256-14.336 32.256-32.256s-14.336-32.256-32.256-32.256H240.128z m615.936-25.088h-58.88c21.504-60.416 58.88-171.52 58.88-185.344 0-78.848-64-142.848-142.848-142.848s-142.848 64-142.848 142.848c0 17.92 35.328 124.416 58.368 185.344h-58.368c-47.104 0-85.504 38.4-85.504 85.504v28.672c0 47.104 38.4 85.504 85.504 85.504h285.696c47.104 0 85.504-38.4 85.504-85.504v-28.672c0-47.104-38.4-85.504-85.504-85.504zM627.712 464.896c0-47.104 38.4-85.504 85.504-85.504s85.504 38.4 85.504 85.504c0 5.632-46.592 141.312-62.976 185.344h-45.568c-7.168-17.92-19.968-52.736-32.256-88.064-16.896-49.664-30.208-93.184-30.208-97.28z m256.512 299.52c0 15.872-12.8 28.672-28.672 28.672H569.856c-15.872 0-28.672-12.8-28.672-28.672v-28.672c0-15.872 12.8-28.672 28.672-28.672h285.696c15.872 0 28.672 12.8 28.672 28.672v28.672z" fill="#00695E" /><path d="M856.064 857.6H570.368c-51.712 0-93.184-41.984-93.184-93.184v-28.672c0-51.712 41.984-93.184 93.184-93.184h47.616c-20.992-56.32-55.296-158.208-55.296-177.664 0-82.944 67.584-150.528 150.528-150.528s150.528 67.584 150.528 150.528c0 16.384-39.936 133.12-55.808 177.664h48.128c51.2 0 93.184 41.984 93.184 93.184v28.672c0 51.712-41.984 93.184-93.184 93.184zM570.368 657.92c-43.008 0-77.824 34.816-77.824 77.824v28.672c0 43.008 34.816 77.824 77.824 77.824h285.696c43.008 0 77.824-34.816 77.824-77.824v-28.672c0-43.008-34.816-77.824-77.824-77.824H785.92l3.584-10.24c26.624-74.24 58.368-172.032 58.368-182.784 0-74.24-60.416-135.168-135.168-135.168s-135.168 60.416-135.168 135.168c0 15.36 32.768 115.712 57.856 182.784l4.096 10.24h-69.12z m285.696 142.848H570.368c-19.968 0-36.352-16.384-36.352-36.352v-28.672c0-19.968 16.384-36.352 36.352-36.352h285.696c19.968 0 36.352 16.384 36.352 36.352v28.672c-0.512 19.968-16.384 36.352-36.352 36.352z m-285.696-85.504c-11.264 0-20.992 9.216-20.992 20.992v28.672c0 11.264 9.216 20.992 20.992 20.992h285.696c11.264 0 20.992-9.216 20.992-20.992v-28.672c0-11.264-9.216-20.992-20.992-20.992H570.368zM368.64 747.008H240.128c-22.016 0-39.936-17.92-39.936-39.936s17.92-39.936 39.936-39.936H368.64c22.016 0 39.936 17.92 39.936 39.936s-17.92 39.936-39.936 39.936z m-128.512-64c-13.312 0-24.576 10.752-24.576 24.576s10.752 24.576 24.576 24.576H368.64c13.312 0 24.576-10.752 24.576-24.576s-10.752-24.576-24.576-24.576H240.128z m501.248-25.088h-56.32l-2.048-4.608c-7.68-19.456-20.992-55.808-32.256-88.064-12.8-36.352-31.232-93.184-31.232-100.352 0-51.712 41.984-93.184 93.184-93.184s93.184 41.984 93.184 93.184c0 8.704-53.76 162.304-62.976 188.416l-1.536 4.608z m-45.568-15.36h34.816c18.432-50.176 58.368-167.424 60.416-178.176-0.512-43.008-35.328-77.312-77.824-77.312-43.008 0-77.824 34.816-77.824 77.824 1.024 5.632 13.312 46.08 30.208 95.744 10.24 29.184 22.016 61.952 30.208 81.92zM464.896 522.24H240.128c-22.016 0-39.936-17.92-39.936-39.936s17.92-39.936 39.936-39.936h224.768c22.016 0 39.936 17.92 39.936 39.936 0 10.752-4.096 20.48-11.776 28.16s-17.408 11.776-28.16 11.776z m-224.768-64c-13.312 0-24.576 10.752-24.576 24.576 0 13.312 10.752 24.576 24.576 24.576h224.768c6.656 0 12.8-2.56 17.408-7.168 4.608-4.608 7.168-10.752 7.168-17.408 0-13.312-10.752-24.576-24.576-24.576H240.128z m257.024-128.512H240.128c-22.016 0-39.936-17.92-39.936-39.936s17.92-39.936 39.936-39.936h257.024c22.016 0 39.936 17.92 39.936 39.936-0.512 22.016-18.432 39.936-39.936 39.936z m-257.024-64.512c-13.312 0-24.576 10.752-24.576 24.576 0 13.312 10.752 24.576 24.576 24.576h257.024c13.312 0 24.576-10.752 24.576-24.576 0-13.312-10.752-24.576-24.576-24.576H240.128z" fill="#00695E" /></svg>