<svg class="icon" style="width: 1em;height: 1em;vertical-align: middle;fill: currentColor;overflow: hidden;"
    viewBox="0 0 1024 1024" version="1.1" xmlns="http://www.w3.org/2000/svg" p-id="17100">
    <path
        d="M225.28 745.472H20.48V82.5344h880.8448V221.184c0 10.6496-8.8064 19.456-19.456 19.456s-19.456-8.8064-19.456-19.456V121.4464H59.392V706.56h165.888c10.6496 0 19.456 8.8064 19.456 19.456s-8.6016 19.456-19.456 19.456zM334.4384 913.8176H39.936c-10.6496 0-19.456-8.8064-19.456-19.456s8.8064-19.456 19.456-19.456h294.5024c10.6496 0 19.456 8.8064 19.456 19.456s-8.8064 19.456-19.456 19.456z"
        fill="currentColor" p-id="17101"></path>
    <path
        d="M659.2512 748.3392c-83.3536 0-151.1424-67.7888-151.1424-151.1424s67.7888-151.1424 151.1424-151.1424 151.1424 67.7888 151.1424 151.1424-67.7888 151.1424-151.1424 151.1424z m0-263.168c-61.8496 0-112.2304 50.3808-112.2304 112.2304s50.3808 112.2304 112.2304 112.2304 112.2304-50.3808 112.2304-112.2304-50.3808-112.2304-112.2304-112.2304z"
        fill="currentColor" p-id="17102"></path>
    <path
        d="M708.1984 941.4656h-98.0992c-15.36 0-27.8528-12.4928-27.8528-27.8528v-29.0816l-14.5408 25.1904c-3.6864 6.5536-9.8304 11.0592-16.9984 13.1072-7.168 1.8432-14.7456 1.024-21.0944-2.8672l-84.992-49.152c-6.5536-3.6864-11.0592-9.8304-13.1072-16.9984-1.8432-7.168-1.024-14.7456 2.8672-21.0944l14.5408-25.1904-25.1904 14.5408c-6.5536 3.6864-13.9264 4.7104-21.0944 2.8672-7.168-1.8432-13.312-6.5536-16.9984-13.1072l-49.152-84.992c-7.7824-13.312-3.072-30.5152 10.24-38.0928l25.1904-14.5408h-29.0816c-15.36 0-27.8528-12.4928-27.8528-27.8528v-98.0992c0-15.36 12.4928-27.8528 27.8528-27.8528h29.0816l-25.1904-14.5408c-13.312-7.7824-17.8176-24.7808-10.24-38.0928l49.152-84.992c3.6864-6.5536 9.8304-11.0592 16.9984-13.1072 7.168-1.8432 14.7456-1.024 21.0944 2.8672l25.1904 14.5408-14.5408-25.1904c-3.6864-6.5536-4.7104-13.9264-2.8672-21.0944 1.8432-7.168 6.5536-13.312 13.1072-16.9984l84.992-49.152c6.5536-3.6864 13.9264-4.7104 21.0944-2.8672 7.168 1.8432 13.312 6.5536 16.9984 13.1072l14.5408 25.1904v-29.0816c0-15.36 12.4928-27.8528 27.8528-27.8528h98.0992c15.36 0 27.8528 12.4928 27.8528 27.8528v29.0816l14.5408-25.1904c3.6864-6.5536 9.8304-11.0592 16.9984-13.1072 7.168-1.8432 14.7456-1.024 21.0944 2.8672l84.992 49.152c6.5536 3.6864 11.0592 9.8304 13.1072 16.9984s1.024 14.7456-2.8672 21.0944l-14.5408 25.1904 25.1904-14.5408c6.5536-3.6864 13.9264-4.7104 21.0944-2.8672 7.168 1.8432 13.312 6.5536 16.9984 13.1072l49.152 84.992c3.6864 6.5536 4.7104 13.9264 2.8672 21.0944s-6.5536 13.312-13.1072 16.9984l-25.1904 14.5408h29.0816c15.36 0 27.8528 12.4928 27.8528 27.8528v98.0992c0 15.36-12.4928 27.8528-27.8528 27.8528h-29.0816l25.1904 14.5408c13.312 7.7824 17.8176 24.7808 10.24 38.0928l-49.152 84.992c-3.6864 6.5536-9.8304 11.0592-16.9984 13.1072-7.168 1.8432-14.7456 1.024-21.0944-2.8672l-25.1904-14.5408 14.5408 25.1904c3.6864 6.5536 4.7104 13.9264 2.8672 21.0944s-6.5536 13.312-13.1072 16.9984l-84.992 49.152c-6.5536 3.6864-13.9264 4.7104-21.0944 2.8672-7.168-1.8432-13.312-6.5536-16.9984-13.1072l-14.5408-25.1904v29.0816c0.2048 15.36-12.288 27.8528-27.8528 27.8528z m-87.04-38.912h76.1856v-58.9824c0-12.9024 8.3968-23.552 20.6848-27.0336 12.288-3.2768 24.9856 1.8432 31.3344 12.9024l29.4912 51.2 65.9456-38.0928-29.4912-51.2c-6.3488-11.0592-4.7104-24.576 4.5056-33.792 9.0112-9.0112 22.528-10.8544 33.792-4.5056l51.2 29.4912 38.0928-65.9456-51.2-29.4912c-11.0592-6.3488-16.384-19.0464-13.1072-31.3344 3.2768-12.288 14.1312-20.6848 27.0336-20.6848H964.608V559.104h-58.9824c-12.9024 0-23.552-8.3968-27.0336-20.6848-3.2768-12.288 1.8432-24.9856 13.1072-31.3344l51.2-29.4912-38.2976-65.9456-51.2 29.4912c-11.0592 6.3488-24.576 4.7104-33.792-4.5056-9.0112-9.0112-10.8544-22.528-4.5056-33.792l29.4912-51.2-65.9456-38.0928-29.4912 51.2c-6.3488 11.0592-19.0464 16.384-31.3344 13.1072-12.288-3.2768-20.6848-14.1312-20.6848-27.0336v-58.9824h-76.1856v58.9824c0 12.9024-8.3968 23.552-20.6848 27.0336-12.288 3.2768-24.9856-1.8432-31.3344-12.9024l-29.4912-51.2-65.9456 38.0928 29.4912 51.2c6.3488 11.0592 4.7104 24.576-4.5056 33.792-9.0112 9.0112-22.528 10.8544-33.792 4.5056l-51.2-29.4912-38.0928 65.9456 51.2 29.4912c11.0592 6.3488 16.384 19.0464 13.1072 31.3344-3.2768 12.288-14.1312 20.6848-27.0336 20.6848h-58.9824v76.1856h58.9824c12.9024 0 23.552 8.3968 27.0336 20.6848 3.2768 12.288-1.8432 24.9856-13.1072 31.3344l-51.2 29.4912 38.0928 65.9456 51.2-29.4912c11.0592-6.3488 24.576-4.7104 33.792 4.5056 9.0112 9.0112 10.8544 22.528 4.5056 33.792l-29.4912 51.2 65.9456 38.0928 29.4912-51.2c6.3488-11.0592 19.0464-16.384 31.3344-13.1072 12.288 3.2768 20.6848 14.1312 20.6848 27.0336v58.7776zM975.6672 559.104z"
        fill="currentColor" p-id="17103"></path>
</svg>