<svg class="icon" style="width: 1em;height: 1em;vertical-align: middle;fill: currentColor;overflow: hidden;" viewBox="0 0 1024 1024" version="1.1" xmlns="http://www.w3.org/2000/svg" p-id="11248"><path d="M104.557 695.297H37.641a13.258 13.258 0 1 1 0-26.517h66.915a13.26 13.26 0 0 1 0.001 26.517z" fill="#8a8a8a" p-id="11249"></path><path d="M71.098 728.757a13.26 13.26 0 0 1-13.26-13.258v-66.914a13.26 13.26 0 0 1 26.519 0v66.914a13.26 13.26 0 0 1-13.26 13.258z m76.65-581.337h-66.92a13.268 13.268 0 0 1-11.483-6.63 13.261 13.261 0 0 1 11.484-19.887h66.914a13.26 13.26 0 0 1 0.005 26.517z" fill="#8a8a8a" p-id="11250"></path><path d="M114.288 180.877a13.263 13.263 0 0 1-13.26-13.257V100.7a13.263 13.263 0 0 1 6.63-11.483 13.261 13.261 0 0 1 19.886 11.484v66.912a13.266 13.266 0 0 1-13.256 13.264z m778.844-24.256h-46.449a9.203 9.203 0 0 1 0-18.406h46.45a9.203 9.203 0 0 1 0 18.406z" fill="#8a8a8a" p-id="11251"></path><path d="M869.904 179.844a9.2 9.2 0 0 1-9.196-9.203V124.2a9.201 9.201 0 1 1 18.403 0v46.443a9.203 9.203 0 0 1-9.207 9.2z m83.18 590.541h-46.446a9.203 9.203 0 0 1 0-18.406h46.447a9.203 9.203 0 0 1 0 18.406z" fill="#8a8a8a" p-id="11252"></path><path d="M929.864 793.608a9.196 9.196 0 0 1-9.202-9.206v-46.435a9.21 9.21 0 0 1 4.598-7.972 9.205 9.205 0 0 1 13.805 7.972v46.435a9.203 9.203 0 0 1-9.201 9.206z m-572.494-88.06c-21.251 0-38.544-17.288-38.544-38.541V306.382c0-21.253 17.288-38.547 38.544-38.547h603.698c21.26 0 38.548 17.288 38.548 38.547v360.625c0 21.254-17.291 38.54-38.548 38.54H357.37z m8.48-47.015h586.748V314.86H365.85v343.672z" fill="#8a8a8a" p-id="11253"></path><path d="M862.697 454.32H694.86c-19.178 0-34.74-13.06-34.74-29.167s15.562-29.171 34.74-29.171h167.837c19.182 0 34.746 13.065 34.746 29.171s-15.563 29.168-34.746 29.168zM799.31 565.696H683.99c-13.18 0-23.87-13.061-23.87-29.17 0-16.105 10.69-29.17 23.87-29.17h115.32c13.18 0 23.876 13.063 23.876 29.17 0 16.109-10.696 29.17-23.876 29.17z" fill="#8a8a8a" p-id="11254"></path><path d="M155.628 930.947V267.545c0-69.534 56.567-126.108 126.093-126.108h507.196v146.907h-44.53V185.96H281.722c-44.97 0-81.553 36.585-81.553 81.556V886.39H670.31l74.086-74.096V685.046h44.527V830.76L688.762 930.946l-533.134 0.001z" fill="#8a8a8a" p-id="11255"></path><path d="M530.57 358.918c22.901 0 40.886 5.118 53.912 15.341 13.085 10.232 19.613 24.833 19.613 43.803 0 8.928-2.637 17.206-7.904 24.835-5.266 7.626-13.395 15.903-24.398 24.83a253.683 253.683 0 0 0-15.801 13.255 59.868 59.868 0 0 0-8.76 9.764c-1.945 2.885-3.201 5.721-3.78 8.505a47.732 47.732 0 0 0-0.86 9.487c0 11.9-6.185 17.85-18.548 17.85-4.813 0-8.594-0.28-11.341-0.812a12.618 12.618 0 0 1-6.353-2.955 10.055 10.055 0 0 1-2.923-5.579 44.295 44.295 0 0 1-0.691-8.49c0-18.97 11.91-37.94 35.734-56.912a518.849 518.849 0 0 0 13.395-10.76c3.438-2.884 6.127-5.58 8.078-8.088 1.839-2.291 3.117-4.853 3.776-7.531 0.598-2.513 0.858-5.53 0.858-9.067 0-8.369-3.091-14.787-9.275-19.248-6.186-4.458-14.778-6.698-25.769-6.698-10.988 0-19.811 2.558-26.448 7.676-6.647 5.114-10.2 11.3-10.657 18.552-0.69 10.971-7.331 16.46-19.93 16.46-13.285 0-19.925-5.305-19.925-15.904 0-15.252 7.328-28.835 21.988-40.733 14.432-11.722 33.107-17.58 56.01-17.58z m-9.275 184.275a27.293 27.293 0 0 1 11.51 2.402 32.116 32.116 0 0 1 15.979 15.982 27.68 27.68 0 0 1 2.403 11.476 27.6 27.6 0 0 1-2.403 11.515 31.772 31.772 0 0 1-15.979 16.004 27.712 27.712 0 0 1-11.51 2.403 27.616 27.616 0 0 1-11.511-2.403 32.333 32.333 0 0 1-15.974-16.004 27.583 27.583 0 0 1-2.409-11.515c0-4.122 0.804-7.929 2.409-11.476a32.054 32.054 0 0 1 15.974-15.982 27.735 27.735 0 0 1 11.511-2.402zM667.18 817.476H284c-13.18 0-23.864-10.684-23.864-23.866 0-13.18 10.684-23.864 23.864-23.864h383.18c13.182 0 23.866 10.684 23.866 23.864 0 13.182-10.684 23.866-23.866 23.866z" fill="#8a8a8a" p-id="11256"></path></svg>