<?xml version="1.0" standalone="no"?><!DOCTYPE svg PUBLIC "-//W3C//DTD SVG 1.1//EN" "http://www.w3.org/Graphics/SVG/1.1/DTD/svg11.dtd"><svg class="icon" width="200px" height="200.00px" viewBox="0 0 1024 1024" version="1.1" xmlns="http://www.w3.org/2000/svg"><path d="M609.81723 0.008777a60.780803 60.780803 0 0 1 60.780803 51.93065l15.725478 105.324134c18.651149 8.777011 36.57088 18.943716 53.686052 30.426972l103.641874-40.447393a62.609347 62.609347 0 0 1 75.189729 27.42816l96.912832 163.618117a59.756818 59.756818 0 0 1-15.067202 77.603407l-86.819269 66.04701c0.877701 9.069578 1.462835 19.382566 1.462835 30.061263H827.999101c0-8.850153-0.438851-17.700306-1.389694-26.550459l-4.16908-32.84065 106.055552-79.724518-83.381607-138.237927-125.218693 48.419845-16.091187-11.995248a307.341676 307.341676 0 0 0-70.947507-39.569693l-18.870574-7.241034-19.016858-128.217505H429.376508l-19.163141 128.217505-19.016857 7.46046c-25.453332 10.239846-49.516972 23.69793-71.532642 39.862259l-15.725478 11.62954-124.852984-48.566129-82.650189 137.799076 105.909268 79.724518-2.486819 19.601992c-1.901686 13.165517-2.92567 26.550459-3.071954 39.862259 0.146284 13.384942 1.170268 26.696742 3.071954 39.86226l2.486819 19.601991-105.98241 79.724519 82.723331 138.530493 125.218693-48.346703 16.091187 11.922107c21.723103 16.237471 45.567316 29.549271 70.947507 39.642834l19.016858 7.387317 19.016857 127.99808h18.578007V1023.993417h-33.572067a60.780803 60.780803 0 0 1-61.000228-51.930649l-15.35977-105.324135a398.695734 398.695734 0 0 1-53.759193-30.426972l-103.715016 40.447393a62.682488 62.682488 0 0 1-75.189729-27.42816L8.299396 685.712777A59.756818 59.756818 0 0 1 23.43974 608.10937l86.746128-66.04701A351.59244 351.59244 0 0 1 108.723033 512.001097c0-9.435287 0-19.382566 1.462835-30.207547L23.586024 415.819683a59.391109 59.391109 0 0 1-15.286628-77.530266l97.571108-164.56896a61.877929 61.877929 0 0 1 75.555438-26.111608l102.617889 40.227968a411.788109 411.788109 0 0 1 53.61291-30.500114l15.798621-106.055552A60.707661 60.707661 0 0 1 414.455589 0.008777h195.2885zM1024.019017 928.031428V1023.993417H543.989646v-96.035131H1024.019017z m0-160.034171v96.035131H543.989646V767.997257H1024.019017zM513.708958 288.041028A224.033211 224.033211 0 0 1 737.230176 512.001097H641.268187A128.729498 128.729498 0 0 0 512.026697 384.003017a127.99808 127.99808 0 0 0-64.072182 238.149571v104.227008a224.106353 224.106353 0 0 1 65.681301-438.338568zM1024.019017 607.963086v96.035131H543.989646V607.963086H1024.019017z" fill="#00695E" /></svg>